<?xml version="1.0" encoding="utf-8"?>
<!-- Generator: Adobe Illustrator 22.1.0, SVG Export Plug-In . SVG Version: 6.00 Build 0)  -->
<svg version="1.1" id="Layer_1" xmlns="http://www.w3.org/2000/svg" xmlns:xlink="http://www.w3.org/1999/xlink" x="0px" y="0px"
	 viewBox="0 0 648 561.3" style="enable-background:new 0 0 648 561.3;" xml:space="preserve">
<style type="text/css">
	.st0{fill:#FFFFFF;}
</style>
<g>
	<path class="st0" d="M115.8,267.3h19.4v31.9h15.1v-31.9h19.4V347h-19.4v-31.9l-15.1-11V347h-19.4V267.3z"/>
	<path class="st0" d="M215,267.3h-20.2L175.3,347h19.4l2.3-11.4l2.7-13.7l5.2-26.3l5.1,26.3l2.7,13.7l2.3,11.4h19.4L215,267.3z"/>
	<path class="st0" d="M288.4,339.4c-1-2.9-2-5.9-3-9.1c-1-3.1-1.9-6.3-2.8-9.4c-0.9-3.1-1.6-5.8-2.1-8.2c6.8-3.3,10.3-9.7,10.3-19.2
		v-3.1c0-7.3-1.9-13-5.8-17c-3.8-4.1-9.1-6.1-15.9-6.1h-29V347h19.4v-65.5h4.9c2.7,0,4.5,0.7,5.5,2c1,1.3,1.5,3.8,1.5,7.5v1.9
		c0,3.6-0.5,6.1-1.5,7.5c-1,1.3-2.9,2-5.5,2h-1.3v12.5c0.5,2.3,1,5,1.7,7.8c0.7,2.9,1.4,5.8,2.1,8.7c0.7,2.9,1.4,5.7,2.2,8.4
		c0.7,2.7,1.4,5.1,2,7.1h19.8C290.2,344.9,289.4,342.4,288.4,339.4z"/>
	<path class="st0" d="M311,283.2h-15.5v-15.9h50.3v15.9h-15.5V347H311V283.2z"/>
	<path class="st0" d="M383.4,267.3c6.8,0,12.1,2.1,15.9,6.4c3.8,4.3,5.8,10.2,5.8,17.8v31.2c0,7.6-1.9,13.5-5.8,17.8
		c-3.8,4.3-9.1,6.4-15.9,6.4h-10.2c-6.8,0-12.1-2.1-15.9-6.4c-3.8-4.3-5.8-10.2-5.8-17.8v-31.2c0-7.6,1.9-13.5,5.8-17.8
		c3.8-4.3,9.1-6.4,15.9-6.4H383.4z M377.9,282.7c-2.7,0-4.5,0.8-5.5,2.3c-1,1.6-1.5,4.5-1.5,8.7v26.9c0,4.3,0.5,7.2,1.5,8.7
		c1,1.6,2.9,2.3,5.5,2.3h0.7c2.7,0,4.5-0.8,5.5-2.3c1-1.6,1.5-4.5,1.5-8.7v-26.9c0-4.3-0.5-7.2-1.5-8.7c-1-1.6-2.9-2.3-5.5-2.3
		H377.9z"/>
	<path class="st0" d="M415.3,267.3h16.3l18.1,40.1v-40.1h18.8V347h-16.3L434,306.9V347h-18.8V267.3z"/>
	<path class="st0" d="M510.6,267.3c6.8,0,12.1,2.1,15.9,6.4c3.8,4.3,5.8,10.2,5.8,17.8v31.2c0,7.6-1.9,13.5-5.8,17.8
		c-3.8,4.3-9.1,6.4-15.9,6.4h-10.2c-6.8,0-12.1-2.1-15.9-6.4c-3.8-4.3-5.8-10.2-5.8-17.8v-31.2c0-7.6,1.9-13.5,5.8-17.8
		c3.8-4.3,9.1-6.4,15.9-6.4H510.6z M505.1,282.7c-2.7,0-4.5,0.8-5.5,2.3c-1,1.6-1.5,4.5-1.5,8.7v26.9c0,4.3,0.5,7.2,1.5,8.7
		c1,1.6,2.9,2.3,5.5,2.3h0.7c2.7,0,4.5-0.8,5.5-2.3c1-1.6,1.5-4.5,1.5-8.7v-26.9c0-4.3-0.5-7.2-1.5-8.7c-1-1.6-2.9-2.3-5.5-2.3
		H505.1z"/>
</g>
<g>
	<path class="st0" d="M115.8,367.8c0-2.6,0.7-4.6,2-6.1c1.3-1.5,3.1-2.2,5.4-2.2h1.7c0.3,0,0.7,0,1.2,0c0.5,0,1,0.1,1.5,0.1
		c0.5,0,1,0.1,1.5,0.1c0.5,0,0.8,0.1,1,0.1v5.3c-0.3,0-0.6-0.1-1.1-0.1c-0.5-0.1-1-0.1-1.5-0.1c-0.5,0-1-0.1-1.5-0.1
		c-0.5,0-0.9-0.1-1.2-0.1c-0.9,0-1.5,0.3-1.9,0.8c-0.3,0.5-0.5,1.5-0.5,3v9.1c0,1.4,0.2,2.4,0.5,3c0.3,0.5,1,0.8,1.9,0.8
		c0.3,0,0.7,0,1.2-0.1c0.5,0,1-0.1,1.5-0.1c0.5,0,1-0.1,1.5-0.1c0.5-0.1,0.8-0.1,1.1-0.1v5.3c-0.2,0.1-0.5,0.1-1,0.1
		c-0.5,0-1,0.1-1.5,0.1c-0.5,0-1,0.1-1.5,0.1c-0.5,0-0.9,0-1.2,0h-1.7c-2.3,0-4.1-0.7-5.4-2.2c-1.3-1.5-2-3.5-2-6.1V367.8z"/>
	<path class="st0" d="M170.4,359.6c2.3,0,4.1,0.7,5.4,2.2c1.3,1.5,2,3.5,2,6.1v10.6c0,2.6-0.7,4.6-2,6.1c-1.3,1.5-3.1,2.2-5.4,2.2
		h-3.5c-2.3,0-4.1-0.7-5.4-2.2c-1.3-1.5-2-3.5-2-6.1v-10.6c0-2.6,0.7-4.6,2-6.1c1.3-1.5,3.1-2.2,5.4-2.2H170.4z M168.5,364.8
		c-0.9,0-1.5,0.3-1.9,0.8c-0.3,0.5-0.5,1.5-0.5,3v9.1c0,1.4,0.2,2.4,0.5,3c0.3,0.5,1,0.8,1.9,0.8h0.2c0.9,0,1.5-0.3,1.9-0.8
		c0.3-0.5,0.5-1.5,0.5-3v-9.1c0-1.4-0.2-2.4-0.5-3c-0.3-0.5-1-0.8-1.9-0.8H168.5z"/>
	<path class="st0" d="M208.4,359.6h6.6v21.7h5.9v5.4h-12.4V359.6z"/>
	<path class="st0" d="M250.6,359.6h6.6v21.7h5.9v5.4h-12.4V359.6z"/>
	<path class="st0" d="M292.9,359.6h13.2v5.4h-6.6v5.3h6.6v5.4h-6.6v5.5h6.6v5.4h-13.2V359.6z"/>
	<path class="st0" d="M335.9,367.8c0-2.6,0.7-4.6,2-6.1c1.3-1.5,3.1-2.2,5.4-2.2h1.7c0.3,0,0.7,0,1.2,0c0.5,0,1,0.1,1.5,0.1
		c0.5,0,1,0.1,1.5,0.1c0.5,0,0.8,0.1,1,0.1v5.3c-0.3,0-0.6-0.1-1.1-0.1c-0.5-0.1-1-0.1-1.5-0.1c-0.5,0-1-0.1-1.5-0.1
		c-0.5,0-0.9-0.1-1.2-0.1c-0.9,0-1.5,0.3-1.9,0.8c-0.3,0.5-0.5,1.5-0.5,3v9.1c0,1.4,0.2,2.4,0.5,3c0.3,0.5,1,0.8,1.9,0.8
		c0.3,0,0.7,0,1.2-0.1c0.5,0,1-0.1,1.5-0.1c0.5,0,1-0.1,1.5-0.1c0.5-0.1,0.8-0.1,1.1-0.1v5.3c-0.2,0.1-0.5,0.1-1,0.1
		c-0.5,0-1,0.1-1.5,0.1c-0.5,0-1,0.1-1.5,0.1c-0.5,0-0.9,0-1.2,0h-1.7c-2.3,0-4.1-0.7-5.4-2.2c-1.3-1.5-2-3.5-2-6.1V367.8z"/>
	<path class="st0" d="M383.8,365h-5.3v-5.4h17.1v5.4h-5.3v21.7h-6.6V365z"/>
	<path class="st0" d="M425.1,359.6h6.6v27.1h-6.6V359.6z"/>
	<path class="st0" d="M473.1,359.6c2.3,0,4.1,0.7,5.4,2.2c1.3,1.5,2,3.5,2,6.1v10.6c0,2.6-0.7,4.6-2,6.1c-1.3,1.5-3.1,2.2-5.4,2.2
		h-3.5c-2.3,0-4.1-0.7-5.4-2.2c-1.3-1.5-2-3.5-2-6.1v-10.6c0-2.6,0.7-4.6,2-6.1c1.3-1.5,3.1-2.2,5.4-2.2H473.1z M471.3,364.8
		c-0.9,0-1.5,0.3-1.9,0.8c-0.3,0.5-0.5,1.5-0.5,3v9.1c0,1.4,0.2,2.4,0.5,3c0.3,0.5,1,0.8,1.9,0.8h0.2c0.9,0,1.5-0.3,1.9-0.8
		c0.3-0.5,0.5-1.5,0.5-3v-9.1c0-1.4-0.2-2.4-0.5-3c-0.3-0.5-1-0.8-1.9-0.8H471.3z"/>
	<path class="st0" d="M511.1,359.6h5.5l6.2,13.6v-13.6h6.4v27.1h-5.5l-6.2-13.6v13.6h-6.4V359.6z"/>
</g>
</svg>
